#!OML:ASF E:\VariousWalksJay\Project 1\Capture day 1\Session 1\Actor2.ASF
:FULLY-SPECIFIED
:DEGREES
1015
root 13.2693 13.8412 27.0413 5.5829 -32.8781 14.7078
lowerback 33.2321 0.247416 -1.16784
upperback 12.8402 -0.999974 -7.25913
thorax -3.14355 -0.427587 -6.67448
lowerneck -10.8273 -6.14835 -10.0152
upperneck -20.1961 -5.24245 21.8136
head -3.03842 -3.05383 8.65371
rclavicle -1.02374e-013 2.76311e-014
rhumerus -71.6868 19.3556 -128.116
rradius 60.3981
rwrist 24.332
rhand -10.0337 20.3846
rfingers 7.12502
rthumb 15.9512 -8.97862
lclavicle -1.02374e-013 2.76311e-014
lhumerus -78.6305 -24.6744 134.557
lradius 62.3513
lwrist -1.3978
lhand -65.2932 -442.166
lfingers 7.12502
lthumb -37.1749 -416.147
rfemur -68.189 -6.62609 21.3042
rtibia 24.4323
rfoot -10.815 -19.1222
rtoes -9.65577
lfemur -52.1436 6.86527 -45.9285
ltibia 81.5913
lfoot -32.7437 2.98538
ltoes -24.3898
1016
root 13.2583 13.8746 27.0838 5.81398 -33.1263 14.5706
lowerback 33.0266 0.267701 -1.07104
upperback 12.7727 -0.936106 -7.20326
thorax -3.13426 -0.397672 -6.68726
lowerneck -10.8965 -6.14318 -9.96278
upperneck -20.0926 -5.25204 21.7921
head -2.99824 -3.05448 8.62911
rclavicle -3.45885e-014 -1.19271e-015
rhumerus -71.5311 19.4548 -127.896
rradius 60.6219
rwrist 24.9352
rhand -9.31354 19.7976
rfingers 7.12502
rthumb 16.6446 -9.50874
lclavicle -3.45885e-014 -1.19271e-015
lhumerus -78.3508 -24.6356 134.402
lradius 62.3426
lwrist -1.26865
lhand -65.1489 -443.656
lfingers 7.12502
lthumb -37.0385 -417.601
rfemur -68.1982 -6.69888 21.7089
rtibia 24.4349
rfoot -10.8689 -19.1804
rtoes -9.12246
lfemur -51.9283 6.99183 -45.8765
ltibia 81.1192
lfoot -32.897 3.21717
ltoes -24.2487
1017
root 13.2453 13.9098 27.1286 6.07016 -33.3817 14.4144
lowerback 32.7714 0.287542 -0.975623
upperback 12.697 -0.870793 -7.14212
thorax -3.11422 -0.367417 -6.69395
lowerneck -10.9396 -6.1347 -9.9226
upperneck -19.9886 -5.25633 21.785
head -2.96156 -3.05346 8.61261
rclavicle 1.03567e-013 4.92986e-014
rhumerus -71.3863 19.5395 -127.667
rradius 60.8467
rwrist 25.4729
rhand -8.54153 19.2353
rfingers 7.12502
rthumb 17.3877 -10.007
lclavicle 1.03567e-013 4.92986e-014
lhumerus -78.0806 -24.5933 134.271
lradius 62.3192
lwrist -1.16935
lhand -65.0258 -445.337
lfingers 7.12502
lthumb -36.9221 -419.252
rfemur -68.2 -6.7687 22.1391
rtibia 24.4178
rfoot -10.9058 -19.2003
rtoes -8.64288
lfemur -51.6894 7.09959 -45.8043
ltibia 80.602
lfoot -33.0797 3.48115
ltoes -24.075
1018
root 13.2299 13.9471 27.1757 6.35887 -33.6403 14.2314
lowerback 32.462 0.301619 -0.876009
upperback 12.6112 -0.80897 -7.07636
thorax -3.08435 -0.339018 -6.69664
lowerneck -10.9764 -6.12689 -9.88221
upperneck -19.8592 -5.26448 21.7879
head -2.91703 -3.05402 8.59816
rclavicle 1.78906e-014 8.07066e-014
rhumerus -71.2575 19.6147 -127.442
rradius 61.053
rwrist 25.941
rhand -7.8061 18.7549
rfingers 7.12502
rthumb 18.0954 -10.4233
lclavicle 1.78906e-014 8.07066e-014
lhumerus -77.8184 -24.5509 134.176
lradius 62.26
lwrist -1.13927
lhand -64.967 -447.075
lfingers 7.12502
lthumb -36.8664 -420.976
rfemur -68.1971 -6.83931 22.6064
rtibia 24.3806
rfoot -10.9339 -19.1775
rtoes -8.20235
lfemur -51.4298 7.2001 -45.7118
ltibia 80.0382
lfoot -33.2933 3.77307
ltoes -23.8341
1019
root 13.2123 13.9863 27.225 6.68014 -33.9031 14.0178
lowerback 32.0983 0.30883 -0.769352
upperback 12.5137 -0.751535 -7.00699
thorax -3.04587 -0.312788 -6.69768
lowerneck -11.0024 -6.12413 -9.85241
upperneck -19.6994 -5.28064 21.8205
head -2.86157 -3.05833 8.59401
rclavicle 3.02153e-014 -5.26779e-014
rhumerus -71.1488 19.6811 -127.234
rradius 61.2264
rwrist 26.3308
rhand -7.14439 18.3544
rfingers 7.12502
rthumb 18.7319 -10.7637
lclavicle 3.02153e-014 -5.26779e-014
lhumerus -77.5894 -24.5188 134.122
lradius 62.1817
lwrist -1.17636
lhand -64.9734 -448.806
lfingers 7.12502
lthumb -36.8725 -422.708
rfemur -68.1876 -6.90704 23.1123
rtibia 24.3263
rfoot -10.9509 -19.1153
rtoes -7.82369
lfemur -51.1467 7.31449 -45.6024
ltibia 79.4257
lfoot -33.5418 4.09924
ltoes -23.5408
1020
root 13.1919 14.0276 27.2766 7.03984 -34.1664 13.769
lowerback 31.6724 0.307388 -0.6523
upperback 12.4022 -0.699599 -6.93353
thorax -2.9979 -0.289134 -6.69806
lowerneck -11.015 -6.13333 -9.83848
upperneck -19.4984 -5.31476 21.8937
head -2.7899 -3.07105 8.60375
rclavicle 1.8487e-014 6.69904e-014
rhumerus -71.0584 19.7336 -127.044
rradius 61.3548
rwrist 26.6462
rhand -6.59952 18.056
rfingers 7.12502
rthumb 19.2559 -11.0106
lclavicle 1.8487e-014 6.69904e-014
lhumerus -77.3906 -24.4987 134.109
lradius 62.0819
lwrist -1.25294
lhand -65.0118 -269.578
lfingers 7.12502
lthumb -36.9088 -424.334
rfemur -68.1743 -6.9715 23.6593
rtibia 24.2567
rfoot -10.9549 -19.0237
rtoes -7.53357
lfemur -50.843 7.45477 -45.4753
ltibia 78.7634
lfoot -33.8214 4.4436
ltoes -23.1776
1021
root 13.1687 14.0711 27.3302 7.4401 -34.4205 13.4821
lowerback 30.922 0.276877 -0.483085
upperback 12.4691 -0.682792 -6.65306
thorax -2.86424 -0.297058 -6.94919
lowerneck -11.067 -6.15174 -9.81276
upperneck -19.2196 -5.36816 22.0025
head -2.68391 -3.09036 8.61743
rclavicle -1.0138e-014 -2.50469e-014
rhumerus -70.9901 19.8035 -126.898
rradius 61.4344
rwrist 26.8812
rhand -6.19356 17.8539
rfingers 7.12502
rthumb 19.6463 -11.1734
lclavicle -1.0138e-014 -2.50469e-014
lhumerus -77.1954 -24.4797 134.101
lradius 61.9661
lwrist -1.3474
lhand -65.0242 -268.076
lfingers 7.12502
lthumb -36.9205 -425.839
rfemur -68.1574 -7.03287 24.241
rtibia 24.1754
rfoot -10.9379 -18.9206
rtoes -7.34638
lfemur -50.5194 7.62835 -45.3274
ltibia 78.0538
lfoot -34.1232 4.79453
ltoes -22.7717
